<!--?xml version="1.0" standalone="no"?-->
              <svg id="sw-js-blob-svg" viewBox="0 0 100 100" xmlns="http://www.w3.org/2000/svg" version="1.1">
                    <defs> 
                        <linearGradient id="sw-gradient" x1="0" x2="1" y1="1" y2="0">
                            <stop id="stop1" stop-color="rgba(248, 117, 55, 1)" offset="0%"></stop>
                            <stop id="stop2" stop-color="rgba(251, 168, 31, 1)" offset="100%"></stop>
                        </linearGradient>
                    </defs>
                <path fill="url(#sw-gradient)" d="M17.9,-24.8C23.4,-24.3,28.1,-19.7,29.2,-14.2C30.3,-8.8,27.7,-2.6,26.9,4C26.2,10.6,27.3,17.6,25,23.5C22.7,29.3,17,34,11.9,31.5C6.7,28.9,2,19.1,-5.9,17.8C-13.8,16.5,-24.8,23.8,-29.6,23C-34.5,22.2,-33,13.4,-29,7.3C-25,1.2,-18.5,-2.1,-15.7,-6.8C-13,-11.5,-14.1,-17.6,-12.1,-19.7C-10.1,-21.8,-5.1,-19.9,0.6,-20.8C6.2,-21.7,12.4,-25.3,17.9,-24.8Z" width="100%" height="100%" transform="translate(50 50)" stroke-width="0" style="transition: all 0.3s ease 0s;"></path>
              </svg>